<svg width="284" height="111" viewBox="0 0 284 111" fill="none" xmlns="http://www.w3.org/2000/svg">
<path d="M57.7546 43.8063C57.7546 42.3899 57.5158 41.2687 57.038 40.4425C56.5603 39.6163 55.9764 38.9967 55.2863 38.5836C54.6493 38.1705 53.9858 37.9049 53.2957 37.7869C52.6056 37.6689 52.0483 37.6098 51.6236 37.6098H14.8375V49.9141H51.6236C51.9421 49.9141 52.4199 49.8551 53.0568 49.7371C53.7469 49.6191 54.437 49.3535 55.1271 48.9404C55.8171 48.5273 56.4276 47.9077 56.9584 47.0815C57.4892 46.2553 57.7546 45.1636 57.7546 43.8063ZM57.7546 19.9058C57.7546 18.4895 57.5158 17.3683 57.038 16.5421C56.5603 15.7159 55.9764 15.1258 55.2863 14.7717C54.6493 14.3586 53.9858 14.093 53.2957 13.975C52.6056 13.857 52.0483 13.798 51.6236 13.798H14.8375V26.1022H51.6236C51.9421 26.1022 52.4199 26.0432 53.0568 25.9252C53.7469 25.8072 54.437 25.5416 55.1271 25.1285C55.8171 24.6564 56.4276 24.0073 56.9584 23.1811C57.4892 22.3549 57.7546 21.2631 57.7546 19.9058ZM71.211 45.6652C71.211 48.7339 70.7333 51.36 69.7778 53.5435C68.8223 55.6679 67.5218 57.4383 65.8763 58.8547C64.2838 60.212 62.3728 61.2152 60.1434 61.8643C57.967 62.5135 55.6048 62.8381 53.0568 62.8381H0.82373V0.874023H53.0568C55.711 0.874023 58.1528 1.2281 60.3822 1.93627C62.6117 2.58541 64.5227 3.61814 66.1151 5.03446C67.7076 6.45079 68.955 8.2802 69.8574 10.5227C70.7598 12.7062 71.211 15.3618 71.211 18.4895C71.158 20.3779 70.8395 22.1779 70.2556 23.8892C69.7778 25.3646 69.0081 26.8399 67.9465 28.3152C66.8848 29.7906 65.3454 31.0003 63.3283 31.9446C65.3454 33.0068 66.8848 34.3346 67.9465 35.928C69.0081 37.4623 69.7778 38.9672 70.2556 40.4425C70.8395 42.1539 71.158 43.8948 71.211 45.6652Z" fill="#F6E3BE"/>
<path d="M151.878 31.856C151.878 36.3411 151.108 40.59 149.569 44.6029C148.029 48.5568 145.826 52.0386 142.96 55.0483C140.094 58.058 136.617 60.448 132.529 62.2184C128.442 63.9888 123.85 64.874 118.754 64.874C113.659 64.874 109.067 63.9888 104.98 62.2184C100.892 60.448 97.3888 58.058 94.4692 55.0483C91.6028 52.0386 89.3999 48.5568 87.8605 44.6029C86.3211 40.59 85.5514 36.3411 85.5514 31.856V0.874023H99.5651V31.856C99.5651 34.5116 99.9367 37.0492 100.68 39.4688C101.476 41.8293 102.644 43.9243 104.183 45.7537C105.776 47.5831 107.766 49.0289 110.155 50.0912C112.597 51.1534 115.463 51.6845 118.754 51.6845C122.046 51.6845 124.885 51.1534 127.274 50.0912C129.663 49.0289 131.627 47.5831 133.166 45.7537C134.759 43.9243 135.927 41.8293 136.67 39.4688C137.466 37.0492 137.864 34.5116 137.864 31.856V0.874023H151.878V31.856Z" fill="#F6E3BE"/>
<path d="M237.827 62.8381V13.1783L216.806 62.8381H203.19L182.249 13.0898V62.8381H168.236V0.874023H191.486L210.038 46.4619L228.59 0.874023H251.761V62.8381H237.827Z" fill="#F6E3BE"/>
<path d="M283.177 56.022C283.177 57.1433 282.991 58.2055 282.619 59.2087C282.248 60.212 281.717 61.0972 281.027 61.8643C280.39 62.5725 279.62 63.1331 278.718 63.5462C277.815 64.0183 276.86 64.2544 275.851 64.2544C274.843 64.2544 273.887 64.0183 272.985 63.5462C272.082 63.1331 271.286 62.5725 270.596 61.8643C269.906 61.0972 269.375 60.212 269.004 59.2087C268.632 58.2055 268.446 57.1433 268.446 56.022C268.446 54.9008 268.632 53.8385 269.004 52.8353C269.375 51.8321 269.906 50.9764 270.596 50.2682C271.286 49.501 272.082 48.9109 272.985 48.4978C273.887 48.0257 274.843 47.7897 275.851 47.7897C276.86 47.7897 277.815 48.0257 278.718 48.4978C279.62 48.9109 280.39 49.501 281.027 50.2682C281.717 50.9764 282.248 51.8321 282.619 52.8353C282.991 53.8385 283.177 54.9008 283.177 56.022ZM281.186 42.744H270.437L268.844 0.874023H282.779L281.186 42.744Z" fill="#F6E3BE"/>
<path d="M92.7253 101.597C91.9766 102.833 91.012 103.973 89.8314 105.017C88.6509 106.033 87.2687 106.926 85.685 107.695C84.1013 108.464 82.3304 109.054 80.3724 109.466C78.4144 109.906 76.2692 110.126 73.9368 110.126C70.6254 110.126 67.6596 109.714 65.0393 108.89C62.4478 108.066 60.245 106.953 58.4309 105.552C56.6456 104.151 55.2779 102.531 54.3277 100.69C53.3775 98.8225 52.9023 96.8448 52.9023 94.7572C52.9023 92.6697 53.3775 90.7057 54.3277 88.8653C55.2779 86.9975 56.6456 85.3631 58.4309 83.9623C60.245 82.5614 62.4478 81.4489 65.0393 80.6249C67.6596 79.8008 70.6254 79.3888 73.9368 79.3888C76.1828 79.3888 78.256 79.5948 80.1565 80.0068C82.0857 80.3914 83.8278 80.9545 85.3827 81.6961C86.9376 82.4103 88.3053 83.2618 89.4859 84.2507C90.6665 85.2121 91.6455 86.2696 92.423 87.4232L85.5986 90.7194C85.1667 90.0327 84.5764 89.3872 83.8278 88.7829C83.1079 88.1786 82.2297 87.6567 81.1931 87.2172C80.1852 86.7777 79.0335 86.4344 77.7377 86.1872C76.4707 85.9125 75.103 85.7752 73.6345 85.7752C71.5037 85.7752 69.632 86.0224 68.0195 86.5168C66.4358 86.9838 65.1113 87.6293 64.0459 88.4533C63.0093 89.2773 62.2174 90.2387 61.6703 91.3375C61.152 92.4087 60.8929 93.5486 60.8929 94.7572C60.8929 95.9384 61.152 97.0783 61.6703 98.177C62.2174 99.2483 63.0093 100.196 64.0459 101.02C65.1113 101.844 66.4358 102.503 68.0195 102.998C69.632 103.492 71.5037 103.739 73.6345 103.739C75.1894 103.739 76.6291 103.602 77.9537 103.327C79.2782 103.025 80.4588 102.627 81.4954 102.132C82.532 101.638 83.4246 101.061 84.1733 100.402C84.922 99.7427 85.4835 99.0423 85.8578 98.3006L92.7253 101.597Z" fill="#EA2D1C"/>
<path d="M119.953 85.734L113.042 97.1882H126.863L119.953 85.734ZM134.077 109.178L130.578 103.41H109.284L105.786 109.178H97.7089L115.072 80.3365H124.79L142.153 109.178H134.077Z" fill="#EA2D1C"/>
<path d="M156.456 86.558V93.1092H181.507V99.3307H156.456V109.178H148.854V80.3365H184.92V86.558H156.456Z" fill="#EA2D1C"/>
<path d="M214.772 75.5982H208.768L203.974 66.2041H211.964L214.772 75.5982ZM193.565 109.178V80.3365H229.975V86.558H201.166V91.7495H226.52V97.353H201.166V102.956H231.098V109.178H193.565Z" fill="#EA2D1C"/>
</svg>
