<svg width="241" height="32" viewBox="0 0 241 32" fill="none" xmlns="http://www.w3.org/2000/svg">
<path d="M28.4655 21.4661C28.4655 20.758 28.346 20.1973 28.1072 19.7842C27.8683 19.3711 27.5763 19.0613 27.2313 18.8548C26.9128 18.6482 26.581 18.5154 26.236 18.4564C25.891 18.3974 25.6123 18.3679 25.3999 18.3679H7.00688V24.5201H25.3999C25.5592 24.5201 25.7981 24.4905 26.1166 24.4315C26.4616 24.3725 26.8066 24.2397 27.1517 24.0332C27.4967 23.8266 27.8019 23.5168 28.0673 23.1037C28.3328 22.6906 28.4655 22.1448 28.4655 21.4661ZM28.4655 9.51591C28.4655 8.80775 28.346 8.24712 28.1072 7.83403C27.8683 7.42093 27.5763 7.12587 27.2313 6.94882C26.9128 6.74228 26.581 6.6095 26.236 6.55048C25.891 6.49147 25.6123 6.46196 25.3999 6.46196H7.00688V12.6141H25.3999C25.5592 12.6141 25.7981 12.5846 26.1166 12.5256C26.4616 12.4666 26.8066 12.3338 27.1517 12.1272C27.4967 11.8912 27.8019 11.5666 28.0673 11.1535C28.3328 10.7404 28.4655 10.1946 28.4655 9.51591ZM35.1937 22.3956C35.1937 23.9299 34.9548 25.243 34.477 26.3347C33.9993 27.397 33.349 28.2822 32.5263 28.9903C31.73 29.669 30.7745 30.1706 29.6598 30.4952C28.5716 30.8197 27.3905 30.982 26.1166 30.982H0V0H26.1166C27.4436 0 28.6645 0.17704 29.7792 0.531121C30.894 0.855694 31.8495 1.37206 32.6457 2.08022C33.4419 2.78838 34.0657 3.70309 34.5169 4.82434C34.9681 5.91609 35.1937 7.24389 35.1937 8.80775C35.1671 9.75196 35.0079 10.6519 34.7159 11.5076C34.477 12.2453 34.0922 12.9829 33.5614 13.7206C33.0305 14.4583 32.2609 15.0632 31.2523 15.5353C32.2609 16.0664 33.0305 16.7303 33.5614 17.527C34.0922 18.2941 34.477 19.0466 34.7159 19.7842C35.0079 20.6399 35.1671 21.5104 35.1937 22.3956Z" fill="#F6E3BE"/>
<path d="M75.5271 15.491C75.5271 17.7335 75.1422 19.858 74.3725 21.8645C73.6028 23.8414 72.5014 25.5823 71.0682 27.0871C69.6349 28.592 67.8965 29.787 65.8528 30.6722C63.8091 31.5574 61.5133 32 58.9654 32C56.4174 32 54.1216 31.5574 52.0779 30.6722C50.0342 29.787 48.2825 28.592 46.8228 27.0871C45.3895 25.5823 44.2881 23.8414 43.5184 21.8645C42.7487 19.858 42.3638 17.7335 42.3638 15.491V0H49.3707V15.491C49.3707 16.8188 49.5565 18.0876 49.9281 19.2974C50.3262 20.4776 50.9101 21.5251 51.6798 22.4398C52.476 23.3545 53.4713 24.0775 54.6657 24.6086C55.8866 25.1397 57.3198 25.4053 58.9654 25.4053C60.6109 25.4053 62.0309 25.1397 63.2252 24.6086C64.4196 24.0775 65.4016 23.3545 66.1713 22.4398C66.9675 21.5251 67.5514 20.4776 67.923 19.2974C68.3211 18.0876 68.5202 16.8188 68.5202 15.491V0H75.5271V15.491Z" fill="#F6E3BE"/>
<path d="M118.501 30.982V6.15214L107.991 30.982H101.183L90.7128 6.10788V30.982H83.7059V0H95.331L104.607 22.7939L113.883 0H125.469V30.982H118.501Z" fill="#F6E3BE"/>
<path d="M141.176 27.574C141.176 28.1346 141.084 28.6657 140.898 29.1674C140.712 29.669 140.447 30.1116 140.102 30.4952C139.783 30.8492 139.398 31.1296 138.947 31.3361C138.496 31.5722 138.018 31.6902 137.514 31.6902C137.009 31.6902 136.532 31.5722 136.081 31.3361C135.629 31.1296 135.231 30.8492 134.886 30.4952C134.541 30.1116 134.276 29.669 134.09 29.1674C133.904 28.6657 133.811 28.1346 133.811 27.574C133.811 27.0134 133.904 26.4823 134.09 25.9806C134.276 25.479 134.541 25.0512 134.886 24.6971C135.231 24.3135 135.629 24.0184 136.081 23.8119C136.532 23.5758 137.009 23.4578 137.514 23.4578C138.018 23.4578 138.496 23.5758 138.947 23.8119C139.398 24.0184 139.783 24.3135 140.102 24.6971C140.447 25.0512 140.712 25.479 140.898 25.9806C141.084 26.4823 141.176 27.0134 141.176 27.574ZM140.181 20.935H134.807L134.01 0H140.977L140.181 20.935Z" fill="#F6E3BE"/>
<path d="M171.755 27.7357C171.38 28.3537 170.898 28.9237 170.308 29.4456C169.718 29.9537 169.026 30.4001 168.235 30.7846C167.443 31.1692 166.557 31.4645 165.578 31.6705C164.599 31.8902 163.527 32.0001 162.36 32.0001C160.705 32.0001 159.222 31.7941 157.912 31.3821C156.616 30.97 155.515 30.4138 154.608 29.7134C153.715 29.0129 153.031 28.2026 152.556 27.2824C152.081 26.3485 151.843 25.3597 151.843 24.3159C151.843 23.2721 152.081 22.2901 152.556 21.3699C153.031 20.436 153.715 19.6188 154.608 18.9184C155.515 18.2179 156.616 17.6617 157.912 17.2497C159.222 16.8377 160.705 16.6317 162.36 16.6317C163.483 16.6317 164.52 16.7347 165.47 16.9407C166.435 17.133 167.306 17.4145 168.083 17.7853C168.861 18.1424 169.545 18.5682 170.135 19.0626C170.725 19.5433 171.215 20.072 171.604 20.6489L168.191 22.297C167.975 21.9536 167.68 21.6309 167.306 21.3287C166.946 21.0266 166.507 20.7656 165.989 20.5459C165.485 20.3261 164.909 20.1545 164.261 20.0308C163.627 19.8935 162.944 19.8248 162.209 19.8248C161.144 19.8248 160.208 19.9484 159.402 20.1957C158.61 20.4291 157.948 20.7519 157.415 21.1639C156.897 21.5759 156.501 22.0566 156.227 22.606C155.968 23.1416 155.839 23.7116 155.839 24.3159C155.839 24.9064 155.968 25.4764 156.227 26.0258C156.501 26.5614 156.897 27.0352 157.415 27.4472C157.948 27.8593 158.61 28.1889 159.402 28.4361C160.208 28.6833 161.144 28.8069 162.209 28.8069C162.987 28.8069 163.707 28.7382 164.369 28.6009C165.031 28.4498 165.621 28.2507 166.14 28.0035C166.658 27.7563 167.104 27.4678 167.479 27.1382C167.853 26.8086 168.134 26.4584 168.321 26.0876L171.755 27.7357Z" fill="#EA2D1C"/>
<path d="M185.368 19.8042L181.913 25.5313H188.824L185.368 19.8042ZM192.43 31.5263L190.681 28.6421H180.034L178.285 31.5263H174.247L182.928 17.1055H187.787L196.469 31.5263H192.43Z" fill="#EA2D1C"/>
<path d="M203.62 20.2163V23.4918H216.146V26.6026H203.62V31.5263H199.819V17.1055H217.852V20.2163H203.62Z" fill="#EA2D1C"/>
<path d="M232.778 14.7364H229.776L227.379 10.0393H231.374L232.778 14.7364ZM222.174 31.5263V17.1055H240.38V20.2163H225.975V22.812H238.652V25.6137H225.975V28.4155H240.941V31.5263H222.174Z" fill="#EA2D1C"/>
</svg>
